# xmcd CD database file
#
# Track frame offsets:
#	150
#	27629
#	57470
#	75842
#	98477
#	108985
#	131959
#	157597
#	184218
#	219131
#
# Disc length: 3101 seconds
#
# Revision: 0
# Processed by: cddbd v1.5.1PL0 Copyright (c) Steve Scherf et al.
# Submitted via: CDex 1.51
#
DISCID=770c1b0a
DTITLE=Pete Mills - Art and Architecture
DYEAR=2004
DGENRE=Jazz
TTITLE0=Dot Com
TTITLE1=Seven Shades of Blue
TTITLE2=In Walked Bud
TTITLE3=Spin Dri
TTITLE4=Chelsea Bridge
TTITLE5=April Tune
TTITLE6=Pumpkin Shoes
TTITLE7=Remembrance
TTITLE8=Clubfoot
TTITLE9=Isfahan
EXTD=YEAR: 2004
EXTT0=
EXTT1=
EXTT2=
EXTT3=
EXTT4=
EXTT5=
EXTT6=
EXTT7=
EXTT8=
EXTT9=
PLAYORDER=
